<svg width="83" height="54" viewBox="0 0 83 54" fill="none" xmlns="http://www.w3.org/2000/svg">
<path d="M13.4794 20.8106C18.8711 20.8106 24.2629 20.8106 29.818 20.8106C29.7407 21.1501 29.6406 21.3953 29.4947 21.7041C29.4703 21.756 29.4459 21.8078 29.4207 21.8613C29.3408 22.0308 29.2603 22.2 29.1798 22.3692C29.1238 22.4873 29.0679 22.6055 29.012 22.7236C28.645 23.4973 28.2691 24.2652 27.886 25.0293C27.5967 25.6073 27.3168 26.1901 27.0404 26.7757C26.7305 27.4321 26.415 28.0844 26.0908 28.7324C25.6041 29.7053 25.1314 30.6862 24.6598 31.668C24.3647 32.282 24.0687 32.8954 23.7673 33.5057C23.2703 34.5126 22.7828 35.5225 22.3278 36.5531C22.2885 36.6414 22.2491 36.7297 22.2086 36.8207C21.5867 38.1772 21.5867 38.1772 21.6209 39.6387C22.131 40.749 23.4101 41.2357 24.4191 41.6033C26.3279 42.2588 28.3205 42.5267 30.3081 42.6977C30.4151 42.707 30.522 42.7164 30.6322 42.726C34.5099 43.0529 38.5228 43.0471 42.3987 42.6977C42.4932 42.6891 42.4932 42.6891 42.5897 42.6805C48.3603 42.2052 48.3603 42.2052 53.1006 39.0199C54.2411 37.4682 55.0231 35.6451 55.8271 33.8702C55.9656 33.5638 56.1051 33.2577 56.2446 32.9516C56.4786 32.4374 56.7121 31.9231 56.9456 31.4086C57.2421 30.7549 57.5391 30.1015 57.8366 29.4482C58.0956 28.8786 58.3546 28.3089 58.6136 27.7391C58.6951 27.5599 58.7761 27.3807 58.8576 27.2015C59.4476 25.9043 60.0311 24.6043 60.5971 23.2944C60.8191 22.7811 61.0476 22.2715 61.2801 21.7637C61.3181 21.6796 61.3561 21.5956 61.3956 21.5089C61.6681 20.9117 61.6681 20.9117 61.7601 20.8106C61.9746 20.8019 62.1876 20.7989 62.4026 20.7998C62.5046 20.7997 62.5046 20.7997 62.6091 20.7996C62.8391 20.7994 63.0691 20.7999 63.2991 20.8004C63.4631 20.8005 63.6276 20.8005 63.7916 20.8004C64.2391 20.8003 64.6861 20.8009 65.1336 20.8015C65.6001 20.8021 66.0671 20.8021 66.5341 20.8022C67.4186 20.8025 68.3036 20.8033 69.1881 20.8041C70.1951 20.8052 71.2021 20.8056 72.2091 20.8061C74.2811 20.807 76.3531 20.8086 78.4251 20.8106C78.3606 21.2097 78.2336 21.5407 78.0691 21.9014C78.0276 21.9947 78.0276 21.9947 77.9851 22.0898C77.9251 22.2236 77.8651 22.3572 77.8046 22.4908C77.6441 22.8471 77.4851 23.2044 77.3261 23.5615C77.2781 23.6693 77.2781 23.6693 77.2291 23.7792C76.9541 24.3966 76.6901 25.0187 76.4291 25.6432C75.9871 26.6985 75.5261 27.7424 75.0616 28.7856C74.6641 29.6775 74.2741 30.5716 73.8966 31.4738C73.4966 32.4275 73.0871 33.376 72.6706 34.3211C72.6041 34.4716 72.5381 34.6222 72.4721 34.7729C71.4606 37.0877 70.2406 39.2211 68.6221 41.083C68.5566 41.1596 68.4916 41.2361 68.4241 41.315C64.0746 46.2705 57.2271 47.6296 51.2341 47.7724C51.1616 47.7742 51.0886 47.776 51.0141 47.7779C48.3065 47.8426 45.5973 47.824 42.8894 47.8222C42.3471 47.8218 41.8049 47.8219 41.2626 47.8223C37.6102 47.8248 33.9598 47.8121 30.3081 47.7209C30.1671 47.7175 30.0261 47.7141 29.8851 47.7107C29.1138 47.6916 28.3426 47.6688 27.5714 47.6424C27.5172 47.6406 27.4629 47.6388 27.407 47.6369C11.2583 47.092 11.2583 47.092 5.50478 42.6566C4.92745 41.9801 4.69031 41.3992 4.69742 40.472C4.69795 40.3983 4.69847 40.3246 4.69902 40.2487C4.77348 37.4258 6.42428 34.7159 7.64653 32.3364C7.88208 31.8762 8.11478 31.4141 8.34808 30.9524C8.45403 30.743 8.55993 30.5336 8.66593 30.3242C8.69248 30.2717 8.71903 30.2191 8.74643 30.165C8.92798 29.8062 9.10968 29.4474 9.29138 29.0887C9.81763 28.0496 10.3425 27.0096 10.8652 25.9684C11.2981 25.1062 11.7319 24.2446 12.1672 23.3839C12.2144 23.2905 12.2617 23.197 12.3103 23.1008C12.6975 22.3358 13.0886 21.5734 13.4794 20.8106Z" fill="#00875F"/>
<path d="M53.0091 9.71744C55.3816 12.0289 57.0106 15.4381 57.2666 18.9269C57.2826 19.3697 57.2871 19.8124 57.2871 20.2556C57.2871 20.3173 57.2876 20.3791 57.2876 20.4427C57.2866 21.4532 57.2271 22.4247 57.0216 23.4119C57.0041 23.4998 57.0041 23.4998 56.9861 23.5894C56.4756 26.0541 55.3876 28.2837 53.7886 30.0971C53.6711 30.2305 53.5561 30.3655 53.4406 30.5007C51.4386 32.813 48.3495 34.4149 45.4348 34.5493C45.0797 34.5534 44.7247 34.557 44.3695 34.5573C44.3054 34.5573 44.2412 34.5574 44.175 34.5575C43.234 34.556 42.335 34.5185 41.4184 34.2657C41.3597 34.2508 41.3011 34.2359 41.2407 34.2205C39.107 33.6735 37.1585 32.4943 35.5572 30.861C35.4294 30.7338 35.2972 30.6117 35.1619 30.4941C33.0838 28.648 31.8616 25.3274 31.4519 22.515C31.4368 22.4133 31.4217 22.3116 31.4062 22.2069C31.2322 20.6044 31.2551 18.7875 31.6152 17.2226C31.6315 17.1492 31.6477 17.0759 31.6644 17.0003C32.1556 14.8235 33.0223 12.8035 34.3928 11.1229C34.4277 11.0793 34.4627 11.0356 34.4987 10.9907C36.7808 8.14291 39.8997 6.39714 43.3534 6.11224C46.9354 5.87318 50.3011 7.14709 53.0091 9.71744Z" fill="#00875F"/>
</svg>
